<svg width="389" height="809" viewBox="0 0 389 809" fill="none" xmlns="http://www.w3.org/2000/svg">
<path d="M380.767 251.012C380.767 248.739 382.61 246.897 384.884 246.897C387.157 246.897 389 248.739 389 251.012V300.391C389 302.664 387.157 304.506 384.884 304.506C382.61 304.506 380.767 302.664 380.767 300.391V251.012Z" fill="#2C2E2F"/>
<path fill-rule="evenodd" clip-rule="evenodd" d="M387.971 300.391V251.012C387.971 249.307 386.589 247.925 384.884 247.925C383.179 247.925 381.796 249.307 381.796 251.012V300.391C381.796 302.095 383.179 303.477 384.884 303.477C386.589 303.477 387.971 302.095 387.971 300.391ZM384.884 246.897C382.61 246.897 380.767 248.739 380.767 251.012V300.391C380.767 302.664 382.61 304.506 384.884 304.506C387.157 304.506 389 302.664 389 300.391V251.012C389 248.739 387.157 246.897 384.884 246.897Z" fill="#2C2E2F"/>
<path d="M0 110.075C0 107.802 1.84298 105.96 4.1164 105.96C6.38983 105.96 8.2328 107.802 8.2328 110.075V159.454C8.2328 161.727 6.38983 163.569 4.1164 163.569C1.84298 163.569 0 161.727 0 159.454V110.075Z" fill="#2C2E2F"/>
<path d="M0 175.914C0 173.641 1.84298 171.799 4.1164 171.799C6.38983 171.799 8.2328 173.641 8.2328 175.914V225.293C8.2328 227.566 6.38983 229.408 4.1164 229.408C1.84298 229.408 0 227.566 0 225.293V175.914Z" fill="#2C2E2F"/>
<path fill-rule="evenodd" clip-rule="evenodd" d="M384.884 75.6121C384.884 19.546 360.185 0 328.283 0H65.3479C25.213 0 4.11643 19.0316 4.11643 75.6121L4.1164 732.46C4.1164 788.526 28.815 808.072 60.7171 808.072H323.652C363.787 808.072 384.884 789.041 384.884 732.46L384.884 75.6121ZM375.622 83.3276H13.3783L14.4074 725.259H375.622V83.3276ZM172.374 743.776H217.655C225.896 743.776 232.577 750.455 232.577 758.693C232.577 766.931 225.896 773.61 217.655 773.61H172.374C164.133 773.61 157.452 766.931 157.452 758.693C157.452 750.455 164.133 743.776 172.374 743.776ZM269.624 52.4655C278.15 52.4655 285.061 45.5568 285.061 37.0345C285.061 28.5122 278.15 21.6035 269.624 21.6035C261.099 21.6035 254.188 28.5122 254.188 37.0345C254.188 45.5568 261.099 52.4655 269.624 52.4655ZM280.944 37.0345C280.944 43.2842 275.876 48.3506 269.624 48.3506C263.372 48.3506 258.304 43.2842 258.304 37.0345C258.304 30.7848 263.372 25.7184 269.624 25.7184C275.876 25.7184 280.944 30.7848 280.944 37.0345ZM274.77 34.977C274.77 36.6815 273.388 38.0632 271.683 38.0632C269.977 38.0632 268.595 36.6815 268.595 34.977C268.595 33.2726 269.977 31.8908 271.683 31.8908C273.388 31.8908 274.77 33.2726 274.77 34.977ZM268.081 42.1782C268.933 42.1782 269.624 41.4873 269.624 40.6351C269.624 39.7828 268.933 39.092 268.081 39.092C267.228 39.092 266.537 39.7828 266.537 40.6351C266.537 41.4873 267.228 42.1782 268.081 42.1782ZM236.693 28.8046C236.693 29.9409 235.772 30.8621 234.635 30.8621C233.498 30.8621 232.577 29.9409 232.577 28.8046C232.577 27.6683 233.498 26.7471 234.635 26.7471C235.772 26.7471 236.693 27.6683 236.693 28.8046ZM228.46 30.8621C229.597 30.8621 230.519 29.9409 230.519 28.8046C230.519 27.6683 229.597 26.7471 228.46 26.7471C227.324 26.7471 226.402 27.6683 226.402 28.8046C226.402 29.9409 227.324 30.8621 228.46 30.8621ZM224.344 28.8046C224.344 29.9409 223.422 30.8621 222.286 30.8621C221.149 30.8621 220.228 29.9409 220.228 28.8046C220.228 27.6683 221.149 26.7471 222.286 26.7471C223.422 26.7471 224.344 27.6683 224.344 28.8046ZM216.111 30.8621C217.248 30.8621 218.169 29.9409 218.169 28.8046C218.169 27.6683 217.248 26.7471 216.111 26.7471C214.974 26.7471 214.053 27.6683 214.053 28.8046C214.053 29.9409 214.974 30.8621 216.111 30.8621ZM211.995 28.8046C211.995 29.9409 211.073 30.8621 209.937 30.8621C208.8 30.8621 207.878 29.9409 207.878 28.8046C207.878 27.6683 208.8 26.7471 209.937 26.7471C211.073 26.7471 211.995 27.6683 211.995 28.8046ZM203.762 30.8621C204.899 30.8621 205.82 29.9409 205.82 28.8046C205.82 27.6683 204.899 26.7471 203.762 26.7471C202.625 26.7471 201.704 27.6683 201.704 28.8046C201.704 29.9409 202.625 30.8621 203.762 30.8621ZM199.646 28.8046C199.646 29.9409 198.724 30.8621 197.587 30.8621C196.451 30.8621 195.529 29.9409 195.529 28.8046C195.529 27.6683 196.451 26.7471 197.587 26.7471C198.724 26.7471 199.646 27.6683 199.646 28.8046ZM191.413 30.8621C192.549 30.8621 193.471 29.9409 193.471 28.8046C193.471 27.6683 192.549 26.7471 191.413 26.7471C190.276 26.7471 189.354 27.6683 189.354 28.8046C189.354 29.9409 190.276 30.8621 191.413 30.8621ZM187.296 28.8046C187.296 29.9409 186.375 30.8621 185.238 30.8621C184.101 30.8621 183.18 29.9409 183.18 28.8046C183.18 27.6683 184.101 26.7471 185.238 26.7471C186.375 26.7471 187.296 27.6683 187.296 28.8046ZM179.063 30.8621C180.2 30.8621 181.122 29.9409 181.122 28.8046C181.122 27.6683 180.2 26.7471 179.063 26.7471C177.927 26.7471 177.005 27.6683 177.005 28.8046C177.005 29.9409 177.927 30.8621 179.063 30.8621ZM174.947 28.8046C174.947 29.9409 174.026 30.8621 172.889 30.8621C171.752 30.8621 170.831 29.9409 170.831 28.8046C170.831 27.6683 171.752 26.7471 172.889 26.7471C174.026 26.7471 174.947 27.6683 174.947 28.8046ZM166.714 30.8621C167.851 30.8621 168.772 29.9409 168.772 28.8046C168.772 27.6683 167.851 26.7471 166.714 26.7471C165.578 26.7471 164.656 27.6683 164.656 28.8046C164.656 29.9409 165.578 30.8621 166.714 30.8621ZM115.259 29.319C115.259 31.3075 113.647 32.9196 111.657 32.9196C109.668 32.9196 108.056 31.3075 108.056 29.319C108.056 27.3304 109.668 25.7184 111.657 25.7184C113.647 25.7184 115.259 27.3304 115.259 29.319ZM131.21 32.9196C133.2 32.9196 134.812 31.3075 134.812 29.319C134.812 27.3304 133.2 25.7184 131.21 25.7184C129.221 25.7184 127.608 27.3304 127.608 29.319C127.608 31.3075 129.221 32.9196 131.21 32.9196ZM138.929 29.319C138.929 33.5801 135.473 37.0345 131.21 37.0345C126.948 37.0345 123.492 33.5801 123.492 29.319C123.492 25.0578 126.948 21.6035 131.21 21.6035C135.473 21.6035 138.929 25.0578 138.929 29.319ZM131.21 34.977C134.336 34.977 136.87 32.4438 136.87 29.319C136.87 26.1941 134.336 23.6609 131.21 23.6609C128.084 23.6609 125.55 26.1941 125.55 29.319C125.55 32.4438 128.084 34.977 131.21 34.977ZM111.657 37.0345C115.92 37.0345 119.376 33.5801 119.376 29.319C119.376 25.0578 115.92 21.6035 111.657 21.6035C107.395 21.6035 103.939 25.0578 103.939 29.319C103.939 33.5801 107.395 37.0345 111.657 37.0345ZM117.317 29.319C117.317 32.4438 114.783 34.977 111.657 34.977C108.531 34.977 105.997 32.4438 105.997 29.319C105.997 26.1941 108.531 23.6609 111.657 23.6609C114.783 23.6609 117.317 26.1941 117.317 29.319ZM304.614 752.006C304.614 751.667 304.446 751.349 304.166 751.157C303.885 750.965 303.528 750.924 303.212 751.047L293.95 754.648C293.554 754.802 293.294 755.182 293.294 755.607C293.294 756.031 293.554 756.412 293.95 756.566L303.212 760.166C303.528 760.289 303.885 760.248 304.166 760.056C304.446 759.865 304.614 759.547 304.614 759.207V756.635H313.876C314.366 756.635 314.853 756.933 315.274 757.76C315.694 758.588 315.934 759.767 315.934 761.008C315.934 762.248 315.694 763.427 315.274 764.255C314.853 765.082 314.366 765.38 313.876 765.38H296.381C295.813 765.38 295.352 765.84 295.352 766.408C295.352 766.977 295.813 767.437 296.381 767.437H313.876C315.444 767.437 316.5 766.385 317.109 765.187C317.717 763.989 317.992 762.468 317.992 761.008C317.992 759.548 317.717 758.026 317.109 756.829C316.5 755.631 315.444 754.578 313.876 754.578H304.614V752.006ZM297.162 755.607L302.556 757.703V753.51L297.162 755.607ZM73.0661 754.029H91.4148C92.5515 754.029 93.473 754.951 93.473 756.087V765.38C93.473 766.516 92.5515 767.437 91.4148 767.437H73.0661C71.9294 767.437 71.0079 766.516 71.0079 765.38V756.087C71.0079 754.951 71.9294 754.029 73.0661 754.029ZM72.1903 764.214V757.253C72.1903 756.116 73.1118 755.195 74.2485 755.195H90.2324C91.3691 755.195 92.2906 756.116 92.2906 757.253V764.214C92.2906 765.35 91.3691 766.271 90.2324 766.271H74.2485C73.1118 766.271 72.1903 765.35 72.1903 764.214ZM75.1462 749.949C74.8197 749.949 74.555 750.21 74.555 750.532C74.555 750.854 74.8197 751.115 75.1462 751.115H95.5531C96.6898 751.115 97.6113 752.036 97.6113 753.172V763.94C97.6113 764.261 97.876 764.522 98.2025 764.522C98.529 764.522 98.7937 764.261 98.7937 763.94V752.006C98.7937 750.87 97.8722 749.949 96.7355 749.949H75.1462ZM217.655 739.661H172.374C161.86 739.661 153.336 748.182 153.336 758.693C153.336 769.204 161.86 777.725 172.374 777.725H217.655C228.169 777.725 236.693 769.204 236.693 758.693C236.693 748.182 228.169 739.661 217.655 739.661ZM172.374 741.719H217.655C227.033 741.719 234.635 749.318 234.635 758.693C234.635 768.068 227.033 775.667 217.655 775.667H172.374C162.996 775.667 155.394 768.068 155.394 758.693C155.394 749.318 162.996 741.719 172.374 741.719Z" fill="#2C2E2F"/>
</svg>
